<?xml version="1.0" encoding="UTF-8"?>
<svg id="Layer_2" data-name="Layer 2" xmlns="http://www.w3.org/2000/svg" viewBox="0 0 1299.6 366">
  <defs>
    <style>
      .cls-1 {
        fill: #00857d;
      }

      .cls-1, .cls-2 {
        stroke-width: 0px;
      }

      .cls-2 {
        fill: #001423;
      }
    </style>
  </defs>
  <g id="Layer_1-2" data-name="Layer 1">
    <g>
      <path class="cls-2" d="M337.27,228.59c-12.35,0-22.88,7.8-26.94,18.74h-174.71c-2.9-7.83-9.12-14.04-16.95-16.95V55.67c10.94-4.06,18.74-14.59,18.74-26.94,0-15.87-12.86-28.73-28.73-28.73s-28.73,12.86-28.73,28.73c0,12.35,7.8,22.88,18.74,26.94v174.71c-10.94,4.06-18.74,14.59-18.74,26.94,0,4.28.94,8.33,2.62,11.98l-41.85,41.85c-3.65-1.68-7.7-2.62-11.98-2.62-15.87,0-28.73,12.86-28.73,28.73s12.86,28.73,28.73,28.73,28.73-12.86,28.73-28.73c0-4.28-.94-8.33-2.62-11.98l41.85-41.85c3.65,1.68,7.7,2.62,11.98,2.62,12.35,0,22.88-7.8,26.94-18.74h174.71c4.06,10.94,14.59,18.74,26.94,18.74,15.87,0,28.73-12.86,28.73-28.73s-12.86-28.73-28.73-28.73Z"/>
      <path class="cls-1" d="M366,28.73c0,15.87-12.86,28.73-28.73,28.73-4.28,0-8.33-.94-11.98-2.62l-41.85,41.85c1.68,3.65,2.62,7.7,2.62,11.98,0,12.35-7.8,22.88-18.74,26.94v174.71c10.94,4.06,18.74,14.59,18.74,26.94,0,15.87-12.86,28.73-28.73,28.73s-28.73-12.86-28.73-28.73c0-12.35,7.8-22.88,18.74-26.94v-174.71c-7.83-2.9-14.04-9.12-16.95-16.95H55.67c-4.06,10.94-14.59,18.74-26.94,18.74-15.87,0-28.73-12.86-28.73-28.73s12.86-28.73,28.73-28.73c12.35,0,22.88,7.8,26.94,18.74h174.71c4.06-10.94,14.59-18.74,26.94-18.74,4.28,0,8.33.94,11.98,2.62l41.85-41.85c-1.68-3.65-2.62-7.7-2.62-11.98,0-15.87,12.86-28.73,28.73-28.73s28.73,12.86,28.73,28.73ZM579.76,136.45c-4.63-4.38-10.18-7.68-16.24-9.66-6.09-2.07-12.48-3.11-18.91-3.08-9.75-.17-19.37,2.17-27.95,6.78-2.68,1.56-5.23,3.35-7.61,5.34v-9.04h-34.53v134.64h34.53v-69.06c-.08-5.7.68-11.38,2.26-16.86,1.26-4.03,3.36-7.74,6.17-10.89,2.41-2.69,5.44-4.74,8.84-5.96,3.71-1.26,7.6-1.89,11.51-1.85,2.99,0,5.97.41,8.84,1.23,2.62.91,5,2.38,6.99,4.32,2.11,2.28,3.78,4.93,4.93,7.81,1.32,4.12,1.95,8.42,1.85,12.74v78.52h34.53v-85.1c.22-7.94-1.18-15.84-4.11-23.23-2.37-6.33-6.16-12.03-11.1-16.65ZM744.41,169.34c2.28,8.16,3.46,16.6,3.49,25.08v13.77h-98.46c.38,2.33,1.22,4.57,2.47,6.58,1.83,3.77,4.51,7.08,7.81,9.66,3.42,2.8,7.32,4.96,11.51,6.37,4.42,1.57,9.08,2.33,13.77,2.26,5.63.24,11.21-1.19,16.03-4.11,5.19-3.31,9.78-7.48,13.57-12.33l3.49-4.11,26.31,20.14-3.29,4.52c-14.18,18.09-34.12,27.34-59.2,27.34-9.78.09-19.49-1.72-28.57-5.34-8.34-3.34-15.84-8.46-21.99-15.01-6.02-6.49-10.7-14.1-13.77-22.4-3.18-8.83-4.78-18.16-4.73-27.54-.02-9.49,1.72-18.9,5.14-27.75,3.36-8.35,8.32-15.96,14.59-22.4,6.24-6.44,13.72-11.54,21.99-15.01,8.74-3.58,18.1-5.4,27.54-5.34,11.92,0,21.99,2.06,30.42,6.37,7.92,3.9,14.87,9.52,20.35,16.44,5.36,6.74,9.28,14.5,11.51,22.82ZM711.31,178.39c-.43-2.36-.98-4.69-1.64-6.99-1.14-3.45-3.04-6.61-5.55-9.25-2.45-2.78-5.56-4.9-9.04-6.17-8.68-3.42-18.36-3.27-26.93.41-3.87,1.69-7.37,4.13-10.28,7.19-2.81,2.83-5.05,6.18-6.58,9.87-.73,1.58-1.28,3.23-1.64,4.93h61.66ZM827.24,230.8c-2.56.57-5.18.84-7.81.82-2.41.12-4.82-.37-6.99-1.44-1.42-1.08-2.55-2.49-3.29-4.11-.93-2.36-1.42-4.87-1.44-7.4-.21-3.29-.41-6.58-.41-9.87v-50.57h33.71v-31.45h-33.71v-34.53h-34.53v34.53h-21.79v31.45h21.79v58.79c-.04,5.15.24,10.3.82,15.42.38,5.56,1.99,10.97,4.73,15.83,3.21,5.18,7.85,9.32,13.36,11.92,5.76,2.88,13.36,4.32,23.43,4.32,3.71-.04,7.42-.31,11.1-.82,4.47-.56,8.79-1.95,12.74-4.11l2.88-1.44v-34.33l-8.43,4.93c-1.93,1.02-4.01,1.72-6.17,2.06ZM997.03,166.46c3.16,8.91,4.76,18.3,4.73,27.75.04,9.32-1.56,18.57-4.73,27.34-3.07,8.3-7.75,15.92-13.77,22.4-6.1,6.56-13.53,11.74-21.79,15.21-8.94,3.62-18.51,5.44-28.16,5.34-9.17-.04-18.22-2.07-26.52-5.96-4.12-1.71-7.93-4.07-11.31-6.99v9.87h-34.53V53.41h34.53v83.04c3.23-2.59,6.75-4.8,10.48-6.58,8.54-4.07,17.88-6.18,27.34-6.17,9.65-.09,19.22,1.72,28.16,5.34,8.18,3.52,15.58,8.62,21.79,15.01,5.91,6.58,10.57,14.17,13.77,22.4ZM963.11,178.8c-1.41-4.39-3.8-8.39-6.99-11.72-3.07-3.26-6.78-5.85-10.89-7.61-9.47-3.57-19.92-3.57-29.39,0-4.12,1.76-7.83,4.35-10.89,7.61-3.12,3.37-5.5,7.37-6.99,11.72-1.71,4.96-2.55,10.17-2.47,15.42-.05,5.24.78,10.45,2.47,15.42,1.54,4.27,3.91,8.18,6.99,11.51,3.01,3.32,6.74,5.92,10.89,7.61,9.42,3.83,19.97,3.83,29.39,0,4.16-1.68,7.88-4.28,10.89-7.61,3.15-3.28,5.54-7.21,6.99-11.51,1.68-4.96,2.52-10.18,2.47-15.42.07-5.24-.77-10.46-2.47-15.42ZM1136.6,244.16c-28.24,27.15-72.89,27.15-101.13,0-13.17-13.29-20.56-31.24-20.55-49.95-.1-28.4,16.95-54.05,43.17-64.95,17.9-7.4,38.01-7.4,55.91,0,26.14,11,43.15,36.59,43.17,64.95,0,18.71-7.38,36.66-20.55,49.95ZM1118.51,178.8c-1.42-4.34-3.73-8.33-6.78-11.72-3.1-3.22-6.8-5.8-10.89-7.61-9.55-3.56-20.05-3.56-29.6,0-4.09,1.81-7.79,4.39-10.89,7.61-3.05,3.39-5.36,7.38-6.78,11.72-1.88,4.92-2.79,10.15-2.67,15.42-.08,5.26.82,10.49,2.67,15.42,1.47,4.25,3.77,8.17,6.78,11.51,3.05,3.28,6.77,5.87,10.89,7.61,9.49,3.84,20.11,3.84,29.6,0,4.13-1.74,7.84-4.33,10.89-7.61,3.01-3.34,5.32-7.26,6.78-11.51,1.75-4.95,2.66-10.16,2.67-15.42,0-5.25-.9-10.47-2.67-15.42ZM1291.58,126.79h-42.34l-26.52,39.47-26.93-39.47h-44.4l48.1,63.1-54.27,71.53h42.96l33.5-47.69,33.71,47.69h44.19l-54.27-71.53,46.25-63.1Z"/>
    </g>
  </g>
</svg>